/* XPM */
static char * balder2d_xpm[] = {
"32 32 7 1",
" 	c None",
".	c #0000FF",
"+	c #000000",
"@	c #FFFFFF",
"#	c #C0C0C0",
"$	c #808080",
"%	c #008080",
"            .......             ",
"        ....+++++++...          ",
"       .@#$$$$$$$$$$$+..        ",
"      .@%.@++++++++++$++.       ",
"     .+#..@+++++++++++#@+.      ",
"    .+$$##$$$$$$$$$$$#%%@+.     ",
"   .+++++++++++.+++++@..@++.    ",
"  .+++++++++.......+++@@++++.   ",
"  .+++++++...........+++++++.   ",
" .++++++...............++++++.  ",
" .++++++...............++++++.  ",
" .+++++.................+++++.  ",
".++++++.................+++#### ",
".+++++...................+@@++# ",
".+@@++...................@++++# ",
".@..@+...................@++++# ",
".@..@+...................+@@++# ",
".+@@++...................++#### ",
".++++++.................@@++++. ",
" .+++++................@..@++.  ",
" .++++++...............@..@++.  ",
" .++++++...............+@@+++.  ",
"  .+++++++...........+++++++.   ",
"  .+++++++++.......+++++++++.   ",
"   .++$$$$$$##$%$$$$$$$$+++.    ",
"    .++$+++@..@+++++++$+++.     ",
"     .++$++@..@++++++$+++.      ",
"      .++$$$##$$$$$$$+++.       ",
"       ..+++++++++++++..        ",
"         ...+++++++...          ",
"            .......             ",
"                                "};
